<?xml version="1.0" encoding="UTF-8"?>
<svg id="Layer_1" data-name="Layer 1" xmlns="http://www.w3.org/2000/svg" viewBox="0 0 270.62 48">
  <defs>
    <style>
      .cls-1 {
        fill: #f7b418;
      }

      .cls-2 {
        fill: #006891;
      }

      .cls-3 {
        fill: #fff;
      }

      .cls-4 {
        fill: #29a9e1;
      }

      .cls-5 {
        opacity: .3;
      }
    </style>
  </defs>
  <g>
    <path class="cls-2" d="M95.27,36.05v-7.14c0-1.35,.02-2.62,.07-3.79,.05-1.18,.12-2.32,.22-3.39,.01-.17-.09-.32-.24-.37-.04-.01-.08-.02-.12-.02-.12,0-.24,.06-.3,.17l-5.55,8.57h-2l-5.37-8.46c-.07-.11-.18-.17-.31-.17-.04,0-.08,0-.12,.02-.16,.05-.26,.21-.24,.38,.1,1.01,.16,2.1,.2,3.24,.04,1.15,.05,2.44,.05,3.83v7.14h-5.62V11.4h5.2l7.04,11.39c.07,.11,.18,.17,.31,.17h0c.13,0,.24-.06,.31-.17l7.11-11.39h4.98v10.03c-.75,1.53-1.12,3.32-1.12,5.31s.38,3.74,1.12,5.29v4.03h-5.62Z"/>
    <path class="cls-2" d="M108.54,36.38c-1.51,0-2.89-.41-4.09-1.22-1.2-.81-2.16-1.95-2.87-3.38l-.02-.03c-.71-1.46-1.07-3.14-1.07-5.01s.36-3.58,1.07-5.02l.02-.03c.7-1.42,1.68-2.55,2.9-3.36,1.23-.81,2.65-1.23,4.24-1.23,1.19,0,2.25,.23,3.13,.69,.89,.46,1.65,1.06,2.24,1.79,.07,.09,.17,.13,.28,.13,.04,0,.08,0,.12-.02,.14-.05,.24-.19,.24-.34v-1.85h3.15v4.97c0,.2,.16,.36,.36,.36h1.81v13.23h-5.47v-1.85c0-.15-.09-.29-.24-.34-.04-.02-.08-.02-.13-.02-.1,0-.2,.04-.27,.12-.62,.71-1.4,1.29-2.31,1.74-.91,.44-1.96,.67-3.1,.67Zm1.74-14.86c-1.36,0-2.46,.49-3.27,1.45-.79,.95-1.19,2.21-1.19,3.77s.4,2.86,1.19,3.8c.81,.96,1.9,1.45,3.27,1.45s2.5-.49,3.31-1.45c.79-.95,1.19-2.22,1.19-3.8s-.4-2.82-1.19-3.77c-.81-.96-1.92-1.45-3.31-1.45Z"/>
    <path class="cls-2" d="M121.95,36.05v-13.59c0-.2-.16-.36-.36-.36h-2.97v-4.6h2.97c.2,0,.36-.16,.36-.36v-4.5h5.44v4.5c0,.2,.16,.36,.36,.36h3.23v1.15c-.93,.77-1.72,1.7-2.33,2.78-.12,.2-.23,.42-.34,.67h-.56c-.2,0-.36,.16-.36,.36v2.97c-.05,.45-.07,.9-.07,1.34s.02,.88,.07,1.33v7.95h-5.44Z"/>
    <path class="cls-2" d="M137.58,36.42c-1.84,0-3.49-.42-4.91-1.26-1.42-.83-2.56-1.99-3.38-3.44-.63-1.1-1.02-2.34-1.17-3.68-.05-.42-.07-.85-.07-1.27s.02-.85,.07-1.28c.11-1.02,.37-1.99,.76-2.89,.14-.32,.27-.58,.41-.82,.6-1.05,1.36-1.95,2.28-2.68,.35-.28,.72-.54,1.1-.76,1.42-.83,3.07-1.26,4.91-1.26,1.66,0,3.21,.29,4.61,.86,.3,.12,.61,.27,.9,.42v4.37l-.66,.79c-.46-.48-1.02-.88-1.65-1.22-.79-.41-1.68-.62-2.65-.62-1.4,0-2.57,.48-3.46,1.44-.88,.95-1.33,2.16-1.33,3.6s.45,2.63,1.33,3.6c.89,.98,2.05,1.48,3.46,1.48,.97,0,1.85-.19,2.61-.56,.63-.31,1.2-.72,1.69-1.24l.67,.81v4.29c-.31,.17-.62,.31-.95,.44-1.41,.57-2.95,.86-4.56,.86Z"/>
    <path class="cls-2" d="M156.06,36.05v-10.98c0-2.94-1.65-3.55-3.03-3.55-.04,0-.13,0-.13,0-1.05,0-1.93,.33-2.63,.97-.7,.65-1.06,1.46-1.06,2.41v11.17h-5.4V9.95h5.29v9.32c0,.15,.09,.29,.24,.34,.04,.02,.08,.02,.13,.02,.1,0,.2-.04,.27-.12,.64-.73,1.45-1.32,2.4-1.76,.95-.44,1.97-.66,3.02-.66,2.05,0,3.64,.63,4.71,1.89,.42,.49,.76,1.07,1.02,1.74v15.33h-4.82Z"/>
    <path class="cls-2" d="M185.79,36.05v-10.95c0-2.94-1.68-3.55-3.08-3.55-1.04,0-1.9,.33-2.57,.97-.68,.65-1.02,1.46-1.02,2.4v11.13h-5.44v-10.95c0-1.12-.27-2-.8-2.61-.54-.62-1.3-.94-2.25-.94-1.03,0-1.9,.32-2.57,.95-.68,.64-1.02,1.45-1.02,2.42v11.13h-5.44V17.49h5.1l.12,2.05c0,.15,.11,.27,.25,.32,.04,.01,.08,.02,.12,.02,.1,0,.21-.04,.28-.13,1.49-1.74,3.24-2.63,5.2-2.63,1.19,0,2.2,.24,3.03,.71,.82,.47,1.56,1.32,2.2,2.54,.06,.11,.17,.18,.3,.19,0,0,.02,0,.02,0,.12,0,.23-.06,.29-.15,.81-1.13,1.77-1.97,2.85-2.49,1.09-.53,2.25-.8,3.45-.8,2.08,0,3.68,.63,4.76,1.89,.45,.52,.81,1.14,1.07,1.86-.1,.18-.19,.35-.27,.51-.76,1.54-1.14,3.34-1.14,5.34s.38,3.77,1.14,5.32c.25,.51,.53,.99,.85,1.44v2.55h-5.44Z"/>
    <path class="cls-2" d="M198.01,36.38c-1.51,0-2.89-.41-4.09-1.22-.77-.52-1.46-1.19-2.03-1.98-.32-.44-.61-.92-.86-1.43-.71-1.45-1.07-3.14-1.07-5.01s.36-3.58,1.07-5.02c.09-.19,.2-.39,.33-.62,.67-1.15,1.54-2.08,2.59-2.78,1.23-.81,2.65-1.23,4.24-1.23,1.19,0,2.25,.23,3.13,.69,.89,.46,1.65,1.06,2.24,1.79,.07,.09,.17,.13,.28,.13,.04,0,.08,0,.12-.02,.14-.05,.24-.19,.24-.34v-1.85h5.04v18.56h-5.18v-1.85c0-.15-.09-.29-.24-.34-.04-.02-.08-.02-.13-.02-.1,0-.2,.04-.27,.12-.62,.71-1.4,1.29-2.31,1.74-.91,.44-1.96,.67-3.1,.67Zm1.74-14.86c-1.36,0-2.46,.49-3.27,1.45-.79,.95-1.19,2.21-1.19,3.77s.4,2.86,1.19,3.8c.81,.96,1.9,1.45,3.27,1.45s2.5-.49,3.31-1.45c.79-.95,1.19-2.22,1.19-3.8s-.4-2.82-1.19-3.77c-.81-.96-1.92-1.45-3.31-1.45Z"/>
    <path class="cls-2" d="M222.87,36.05l-5.33-7.03c-.06-.08-.16-.13-.26-.14-.01,0-.02,0-.03,0-.09,0-.18,.03-.25,.1l-1.49,1.38c-.07,.07-.12,.16-.12,.27v5.44h-5.44V9.95h5.44v13.7c0,.15,.09,.28,.23,.34,.04,.02,.09,.03,.14,.03,.1,0,.19-.04,.26-.11l6.2-6.41h5.03v1.85l-6.26,5.86c-.14,.13-.15,.34-.04,.49l6.3,7.96v2.4h-4.39Z"/>
    <path class="cls-2" d="M230.67,13.03c-1.04,0-1.85-.24-2.41-.73-.55-.48-.82-1.14-.82-2.03,0-.79,.28-1.43,.84-1.94,.57-.52,1.37-.78,2.38-.78s1.86,.25,2.43,.73c.56,.48,.83,1.13,.83,1.99s-.28,1.47-.84,1.98c-.57,.51-1.38,.78-2.42,.78Z"/>
    <rect class="cls-2" x="227.99" y="17.49" width="5.4" height="18.56"/>
    <path class="cls-2" d="M246.4,36.05v-10.98c0-2.94-1.65-3.55-3.03-3.55-.04,0-.13,0-.13,0-1.05,0-1.93,.33-2.63,.97-.7,.65-1.06,1.46-1.06,2.41v11.17h-5.4V17.49h5.06l.12,1.91c0,.15,.11,.27,.25,.32,.04,.01,.08,.02,.11,.02,.1,0,.21-.05,.28-.13,.64-.75,1.46-1.37,2.43-1.83,.97-.46,2.01-.69,3.09-.69,2.05,0,3.64,.63,4.71,1.89,.47,.54,.84,1.21,1.1,1.98-.08,.14-.15,.27-.23,.41-.8,1.53-1.2,3.31-1.2,5.3s.41,3.67,1.22,5.14c.21,.39,.46,.77,.73,1.13v3.11h-5.44Z"/>
    <path class="cls-2" d="M260.47,44.39c-1.58,0-3.16-.23-4.7-.67-1.4-.41-2.58-.94-3.5-1.58l1.82-3.61c.71,.42,1.49,.77,2.34,1.04,.99,.31,2.05,.47,3.17,.47,1.87,0,3.29-.43,4.2-1.27,.92-.85,1.38-2.17,1.38-3.91v-.83c0-.15-.09-.28-.22-.33-.04-.02-.09-.03-.14-.03-.09,0-.19,.04-.26,.11-.61,.61-1.4,1.11-2.32,1.48-.93,.37-1.93,.55-2.97,.55-1.67,0-3.17-.39-4.46-1.15-.9-.53-1.68-1.22-2.33-2.06-.28-.37-.53-.75-.75-1.14-.75-1.36-1.13-2.98-1.13-4.79s.38-3.54,1.12-4.96c.09-.18,.19-.35,.29-.52,.71-1.18,1.63-2.14,2.74-2.86,1.26-.82,2.73-1.23,4.37-1.23,1.18,0,2.28,.22,3.26,.64,.99,.43,1.8,.98,2.42,1.64,.07,.07,.17,.12,.27,.12,.04,0,.08,0,.12-.02,.14-.05,.23-.18,.24-.32l.09-1.65h5.09v17.29c0,3.05-.91,5.43-2.69,7.09-1.8,1.67-4.3,2.51-7.46,2.51Zm.18-22.87c-1.43,0-2.58,.48-3.42,1.43-.83,.93-1.25,2.2-1.25,3.76s.42,2.82,1.25,3.76c.84,.95,1.99,1.43,3.42,1.43s2.58-.47,3.42-1.41c.83-.92,1.25-2.19,1.25-3.78s-.42-2.82-1.25-3.76c-.84-.95-1.99-1.43-3.42-1.43Z"/>
  </g>
  <g>
    <path class="cls-4" d="M26.82,37.2s-5.78-2.49-12.55-8.19c-.27,3.95-.23,8.45,.5,13.16,10.82-4.15,12.05-4.97,12.05-4.97"/>
    <path class="cls-1" d="M53.02,17.1C45.16,12.74,30.84,6.11,8.66,5.83c.49,1.7,1.02,3.33,1.57,4.88,19.88-1.04,35.87,2.79,42.79,6.38"/>
    <path class="cls-2" d="M10.23,10.71c-3.31,.17-6.72,.48-10.23,.94,4.11,7.59,9.44,13.29,14.27,17.35,.19-2.67,.52-5.09,.88-7.15-1.72-3.18-3.42-6.89-4.93-11.15"/>
    <path class="cls-2" d="M15.15,21.86c-.37,2.06-.7,4.48-.88,7.15,6.77,5.7,12.55,8.19,12.55,8.19,0,0-5.95-4.77-11.67-15.34"/>
    <path class="cls-1" d="M16.87,14.72s18.2-2.82,36.14,2.38h0c-6.92-3.6-22.91-7.42-42.79-6.38,1.51,4.26,3.21,7.97,4.93,11.15,.78-4.4,1.72-7.14,1.72-7.14"/>
    <path class="cls-4" d="M16.87,14.72s-.94,2.74-1.72,7.14c5.71,10.57,11.67,15.34,11.67,15.34,16.81-8.31,26.19-20.1,26.19-20.1-17.94-5.2-36.14-2.38-36.14-2.38"/>
    <path class="cls-3" d="M17.32,15.43s15.92-2.88,34.79,1.41c-17.65-4.85-35.23-2.12-35.23-2.12,0,0-.94,2.74-1.72,7.14,1.21-4.45,2.16-6.43,2.16-6.43"/>
    <path class="cls-3" d="M26.82,37.2s-9.65-7.16-16.16-25.57c-.42,.02-.84,.05-1.26,.07,6.66,18.57,17.42,25.5,17.43,25.5"/>
  </g>
  <g class="cls-5">
    <rect x="64.13" width=".8" height="48"/>
  </g>
</svg>