<svg width="131" height="24" viewBox="0 0 131 24" fill="none" xmlns="http://www.w3.org/2000/svg">
<path d="M0.595476 18.6373V3.1936H4.10035L8.44384 10.2311L12.8306 3.1936H16.204V18.6373H12.3464V14.0708C12.3464 13.2471 12.3602 12.4754 12.3896 11.7538C12.419 11.034 12.4623 10.3418 12.521 9.67909L9.08188 14.9966H7.62598L4.29747 9.74484C4.35626 10.3626 4.39603 11.0236 4.41851 11.7296C4.44099 12.4356 4.45136 13.216 4.45136 14.0691V18.6356H0.59375L0.595476 18.6373Z" fill="#006891"/>
<path d="M21.4565 18.8362C20.4864 18.8362 19.615 18.5749 18.8438 18.0523C18.0726 17.5297 17.4623 16.8099 17.0144 15.891C16.5666 14.9722 16.3418 13.9236 16.3418 12.7469C16.3418 11.5703 16.5666 10.5044 17.0144 9.59245C17.4623 8.68053 18.0795 7.96415 18.8663 7.44158C19.653 6.919 20.5521 6.65771 21.5671 6.65771C22.3314 6.65771 23.0005 6.8048 23.5729 7.09896C24.1469 7.39313 24.6242 7.77554 25.0063 8.24621V6.89997H28.6875V18.6372H24.9181V17.2909C24.5221 17.7478 24.0294 18.1181 23.4415 18.4053C22.8536 18.6925 22.1913 18.8362 21.4582 18.8362H21.4565ZM22.5147 15.7249C23.2945 15.7249 23.9066 15.4567 24.3562 14.9203C24.804 14.3839 25.0288 13.6588 25.0288 12.7469C25.0288 11.835 24.804 11.1325 24.3562 10.5961C23.9083 10.0596 23.2945 9.79144 22.5147 9.79144C21.7348 9.79144 21.1435 10.0596 20.6957 10.5961C20.2478 11.1325 20.023 11.8506 20.023 12.7469C20.023 13.6433 20.2461 14.3839 20.6957 14.9203C21.1435 15.4567 21.7504 15.7249 22.5147 15.7249Z" fill="#006891"/>
<path d="M31.1337 18.6371V10.1426H29.1055V6.89985H31.1337V3.94263H34.8824V6.89985H37.0645V10.1426H34.8824V18.6371H31.1337Z" fill="#006891"/>
<path d="M42.2885 18.8587C41.1266 18.8587 40.0943 18.5939 39.1917 18.0644C38.2874 17.5349 37.575 16.8099 37.0528 15.891C36.5306 14.9722 36.2695 13.9305 36.2695 12.7694C36.2695 11.6083 36.5306 10.5442 37.0528 9.62532C37.575 8.70649 38.2874 7.98146 39.1917 7.45196C40.096 6.92246 41.1283 6.65771 42.2885 6.65771C43.3312 6.65771 44.2943 6.83767 45.1761 7.19759C46.0579 7.55751 46.7565 8.06106 47.27 8.70822L45.2418 11.1359C44.9479 10.783 44.5761 10.4888 44.1283 10.2535C43.6804 10.0181 43.1773 9.90045 42.6188 9.90045C41.8251 9.90045 41.1784 10.1687 40.6787 10.7051C40.179 11.2415 39.9283 11.9215 39.9283 12.7452C39.9283 13.5689 40.1773 14.2351 40.6787 14.7853C41.1784 15.3373 41.8251 15.6125 42.6188 15.6125C43.1773 15.6125 43.6735 15.5052 44.1075 15.2923C44.5415 15.0795 44.9202 14.7819 45.2435 14.3995L47.2493 16.8479C46.734 17.4657 46.032 17.9554 45.1433 18.3153C44.2545 18.6752 43.3018 18.8552 42.2885 18.8552V18.8587Z" fill="#006891"/>
<path d="M47.2927 18.6372V2.31104H50.9532V8.20126C51.3648 7.7306 51.8749 7.35511 52.4852 7.07651C53.0956 6.79619 53.7371 6.65776 54.4149 6.65776C55.7376 6.65776 56.7474 7.06613 57.446 7.88287C58.1446 8.69961 58.4938 9.87974 58.4938 11.4232V18.6372H54.7452V11.7312C54.7452 10.4075 54.1797 9.76034 53.0472 9.78976C52.4593 9.78976 51.9734 9.96626 51.5913 10.3193C51.2091 10.6723 51.0172 11.1066 51.0172 11.6205V18.6372H47.291H47.2927Z" fill="#006891"/>
<path d="M58.939 18.6371V6.89993H62.4664L62.5545 8.35692C63.5107 7.23909 64.6191 6.68018 65.8831 6.68018C66.6473 6.68018 67.2974 6.83418 67.8335 7.14392C68.3695 7.45193 68.8433 7.997 69.2548 8.7774C69.7683 8.05756 70.3752 7.52633 71.0738 7.18891C71.7724 6.85148 72.5038 6.68191 73.268 6.68191C74.6046 6.68191 75.6265 7.09028 76.332 7.90702C77.0374 8.72376 77.3902 9.9108 77.3902 11.4699V18.6406H73.6432V11.7571C73.6432 10.4628 73.0917 9.81563 71.9902 9.81563C71.4162 9.81563 70.9458 9.99213 70.5793 10.3451C70.211 10.6981 70.0277 11.1325 70.0277 11.6464V18.6406H66.279V11.7571C66.279 11.1255 66.1355 10.6428 65.8485 10.3123C65.5614 9.98175 65.1603 9.81563 64.6467 9.81563C64.0727 9.81563 63.6024 9.98867 63.2358 10.3347C62.8675 10.6808 62.6842 11.1186 62.6842 11.6481V18.6423H58.9355L58.939 18.6371Z" fill="#006891"/>
<path d="M82.726 18.8362C81.756 18.8362 80.8845 18.5749 80.1133 18.0523C79.3421 17.5297 78.7318 16.8099 78.2839 15.891C77.8361 14.9722 77.6113 13.9236 77.6113 12.7469C77.6113 11.5703 77.8361 10.5044 78.2839 9.59245C78.7318 8.68053 79.3491 7.96415 80.1358 7.44158C80.9225 6.919 81.8217 6.65771 82.8366 6.65771C83.6009 6.65771 84.2701 6.8048 84.8424 7.09896C85.4165 7.39313 85.8937 7.77554 86.2758 8.24621V6.89997H89.9571V18.6372H86.1876V17.2909C85.7917 17.7478 85.2989 18.1181 84.711 18.4053C84.1231 18.6925 83.4609 18.8362 82.7277 18.8362H82.726ZM83.7842 15.7249C84.564 15.7249 85.1761 15.4567 85.6257 14.9203C86.0735 14.3839 86.2983 13.6588 86.2983 12.7469C86.2983 11.835 86.0735 11.1325 85.6257 10.5961C85.1778 10.0596 84.564 9.79144 83.7842 9.79144C83.0044 9.79144 82.413 10.0596 81.9652 10.5961C81.5174 11.1325 81.2926 11.8506 81.2926 12.7469C81.2926 13.6433 81.5156 14.3839 81.9652 14.9203C82.413 15.4567 83.0199 15.7249 83.7842 15.7249Z" fill="#006891"/>
<path d="M90.2967 18.6372V2.31104H94.0436V10.8712L97.8805 6.90001H102.796L97.3721 11.9752L102.641 18.6389H98.254L94.9462 14.2697L94.0419 15.109V18.6389H90.2949L90.2967 18.6372Z" fill="#006891"/>
<path d="M104.537 4.62797C103.846 4.62797 103.31 4.46186 102.928 4.13135C102.545 3.80085 102.354 3.33364 102.354 2.72974C102.354 2.1864 102.549 1.7365 102.938 1.3835C103.327 1.0305 103.86 0.854004 104.536 0.854004C105.212 0.854004 105.767 1.02012 106.156 1.35062C106.545 1.68113 106.74 2.14141 106.74 2.72974C106.74 3.31807 106.545 3.74548 106.156 4.09674C105.767 4.44974 105.226 4.62624 104.536 4.62624L104.537 4.62797ZM102.686 18.6372V6.89997H106.412V18.6372H102.686Z" fill="#006891"/>
<path d="M106.947 18.6372V6.89999H110.452L110.54 8.26699C110.951 7.78076 111.468 7.39142 112.094 7.09725C112.719 6.80309 113.377 6.65601 114.067 6.65601C115.39 6.65601 116.4 7.06438 117.098 7.88112C117.797 8.69786 118.146 9.87798 118.146 11.4215V18.6355H114.397V11.7295C114.397 10.4057 113.832 9.75858 112.7 9.788C112.112 9.788 111.626 9.9645 111.244 10.3175C110.861 10.6705 110.67 11.1048 110.67 11.6187V18.6355H106.943L106.947 18.6372Z" fill="#006891"/>
<path d="M124.607 23.7124C123.623 23.7124 122.648 23.5723 121.686 23.2937C120.723 23.0134 119.942 22.6465 119.338 22.1897L120.638 19.608C121.109 19.916 121.634 20.1634 122.215 20.3468C122.796 20.5303 123.417 20.622 124.078 20.622C125.165 20.622 125.966 20.3832 126.481 19.9039C126.995 19.4263 127.252 18.6874 127.252 17.6872V17.1802C126.856 17.5765 126.36 17.8931 125.763 18.1285C125.169 18.3638 124.539 18.4815 123.879 18.4815C122.821 18.4815 121.88 18.2392 121.057 17.753C120.234 17.2667 119.584 16.5919 119.106 15.7232C118.629 14.8546 118.391 13.8475 118.391 12.7003C118.391 11.553 118.626 10.4836 119.096 9.57865C119.566 8.67366 120.206 7.96074 121.014 7.43816C121.821 6.91558 122.748 6.6543 123.791 6.6543C124.541 6.6543 125.231 6.791 125.864 7.06267C126.495 7.33434 127.01 7.68388 127.408 8.11128L127.474 6.89828H131.001V17.6422C131.001 19.5699 130.432 21.0615 129.293 22.1205C128.153 23.1795 126.592 23.709 124.607 23.709V23.7124ZM124.717 15.6592C125.525 15.6592 126.165 15.3979 126.635 14.8754C127.105 14.3528 127.34 13.6364 127.34 12.7245C127.34 11.8126 127.105 11.1135 126.635 10.584C126.165 10.0545 125.525 9.78975 124.717 9.78975C123.91 9.78975 123.27 10.0545 122.8 10.584C122.33 11.1135 122.094 11.8264 122.094 12.7245C122.094 13.6226 122.33 14.3355 122.8 14.865C123.27 15.3945 123.91 15.6592 124.717 15.6592Z" fill="#006891"/>
</svg>
